<svg viewBox="0 0 19 19" xmlns="http://www.w3.org/2000/svg">
  <path class="instagram" d="M5.583.057C6.597.011 6.92 0 9.5 0s2.903.011 3.917.057c1.544.07 2.9.449 3.989 1.537 1.088 1.09 1.466 2.445 1.537 3.989C18.989 6.597 19 6.92 19 9.5s-.011 2.903-.057 3.917c-.07 1.544-.449 2.9-1.537 3.989-1.09 1.088-2.446 1.466-3.989 1.537-1.014.046-1.337.057-3.917.057s-2.903-.011-3.917-.057c-1.544-.07-2.9-.449-3.988-1.537C.505 16.316.128 14.96.057 13.417.011 12.403 0 12.08 0 9.5s.011-2.903.057-3.917c.07-1.544.45-2.9 1.537-3.988C2.684.505 4.04.128 5.583.057zM9.25 5a5 5 0 1 0 0 10 5 5 0 0 0 0-10zm0 8.333c-1.912 0-3.462-1.492-3.462-3.333s1.55-3.333 3.462-3.333S12.712 8.159 12.712 10s-1.55 3.333-3.462 3.333zm6.446-8.79a1.24 1.24 0 1 1-2.479 0 1.24 1.24 0 0 1 2.478 0z" fill-rule="evenodd"/>
</svg>
