<svg viewBox="0 0 60 60" xmlns="http://www.w3.org/2000/svg">
    <path d="m35.70432 39.61279-4.79883 4.77051a.89084.89084 0 0 1 -.144.0918.52756.52756 0 0 1 -.16015.0498.9319.9319 0 0 1 -.17676.03028l-.02051.00048a.71935.71935 0 0 1 -.12939-.01367.83982.83982 0 0 1 -.18555-.03955.53713.53713 0 0 1 -.1582-.08252l.15088-.26068-.15039.25922-.11817-.07325-5.46777-4.68652a.886.886 0 0 1 1.15332-1.34521l4.00635 3.43408v-25.41748a.88574.88574 0 1 1 1.77148 0v25.20508l3.17529-3.17481a.879.879 0 0 1 .62647-.25976h.00049a.88574.88574 0 0 1 .62549 1.5122zm18.15158-8.80615c0 13.00586-10.54199 23.19336-24 23.19336s-24-10.1875-24-23.19336c0-13.44629 10.99073-24.80664 24-24.80664s24 11.36035 24 24.80664zm-2 0c0-12.3623-10.0747-22.80664-22-22.80664s-22 10.44434-22 22.80664c0 11.88379 9.66358 21.19336 22 21.19336s22-9.30957 22-21.19336z" fill="#1d1d1b"/>
</svg>