<svg viewBox="0 0 42 24"
  xmlns="http://www.w3.org/2000/svg">
  <path d="m39.62122 11.78427a.709.709 0 0 1 -.05188.0929l-6 7a.75.75 0 0 1 -1.13868-.97656l4.9386-5.76172h-33.36926a.75.75 0 0 1 0-1.5h33.18945l-4.71972-4.71973a.74992.74992 0 0 1 1.06054-1.06054l6 6a256.84728 256.84728 0 0 1 .14765.21893c.004.00879.01043.01575.01416.02472a.72038.72038 0 0 1 .02508.11786.465.465 0 0 1 .01081.2818.72571.72571 0 0 1 -.02723.14007c-.004.01105-.00415.02265-.00866.03351a.73755.73755 0 0 1 -.07086.10876z"/>
</svg>