<svg viewBox="0 0 24 24"
  xmlns="http://www.w3.org/2000/svg">
  <path d="m6.94824 13.50852a.75021.75021 0 0 1 1.10352-1.0166l3.19824 3.47259v-12.57562a.75.75 0 0 1 1.5 0v12.27637l3.22168-3.19726a.74992.74992 0 1 1 1.05664 1.06445l-4.70215 4.66655-.01123.00744-.00879.01209a.72493.72493 0 0 1 -.15582.09656.76888.76888 0 0 1 -.07849.0487.73506.73506 0 0 1 -.5636-.00647.77274.77274 0 0 1 -.08459-.05658.718.718 0 0 1 -.158-.10565l-.00762-.0116-.01191-.00842zm15.05176 2.7417a.75019.75019 0 0 0 -.75.75v3.25h-18.5v-3.25a.75.75 0 0 0 -1.5 0v4.75h21.5v-4.75a.75019.75019 0 0 0 -.75-.75z"/>
</svg>